<svg width="720" height="217" viewBox="0 0 720 217" fill="none" xmlns="http://www.w3.org/2000/svg">
<g style="mix-blend-mode:difference">
<path d="M164.865 170.747L161.984 170.915C156.489 155.78 149.295 137.716 140.269 117.085C133.207 100.769 126.544 84.681 120.265 68.8344C114.3 83.741 107.986 98.9248 101.322 114.374C91.6691 136.426 84.0652 155.213 78.4858 170.747H75.6658L26.3548 28.1153C23.6072 20.1137 20.1728 14.3294 16.0635 10.7625C11.9422 7.19548 6.59169 4.66485 0 3.17057V0.579692H48.4797V3.17057C44.6355 4.26717 41.7072 5.73735 39.7068 7.5811C37.7064 9.42484 36.7062 12.1121 36.7062 15.643C36.7062 18.8605 37.5739 23.0179 39.2971 28.1153L82.4865 152.863C87.4273 140.463 92.9946 127.015 99.2007 112.494C106.106 96.3339 112.613 80.5235 118.735 65.0626L117.795 62.7127C115.047 55.7354 112.541 48.4568 110.263 40.877C107.986 33.3092 106.769 25.8378 106.612 18.4628C106.769 12.4978 108.359 7.95466 111.384 4.80945C114.409 1.67629 117.831 0.0976562 121.675 0.0976562C124.109 0.0976562 126.387 0.688145 128.496 1.85705C130.605 3.02597 132.364 4.85765 133.738 7.32803C135.112 9.79841 135.798 12.9557 135.798 16.7998C135.798 21.6683 135.075 26.5488 133.617 31.4534C132.159 36.358 130.58 41.1662 128.845 45.8659L126.965 51.0477L168.624 152.02L211.464 28.1033C213.188 23.0059 214.055 18.8484 214.055 15.6309C214.055 12.1001 213.055 9.4128 211.054 7.56906C209.054 5.72531 206.126 4.25513 202.282 3.15852V0.56763L240.651 0.471241V3.14646C233.987 4.55638 228.588 7.05088 224.467 10.6179C220.346 14.1848 216.911 20.0173 214.176 28.0913L164.865 170.722V170.747ZM125.314 47.1794C127.122 42.4676 128.845 37.4546 130.496 32.1162C132.147 26.7777 132.967 21.6803 132.967 16.8119C132.967 13.992 132.376 11.5337 131.207 9.46099C130.026 7.38829 128.339 6.33989 126.146 6.33989C123.555 6.5809 121.796 8.05108 120.856 10.7504C119.916 13.4498 119.446 16.1009 119.446 18.6918C119.446 23.0902 120.012 27.8864 121.157 33.1043C122.29 38.3222 123.687 43.0099 125.338 47.1674L125.314 47.1794Z" fill="white"/>
<path d="M240.35 208.308C218.562 222.889 183.615 221.684 161.984 170.915L169.155 153.008C187.231 196.39 206.186 204.428 228.203 201.21C233.167 200.487 243.868 198.8 253.003 188.075C255.702 184.906 259.534 180.724 261.125 177.952C263.451 173.891 265.102 169.324 266.596 164.54L233.18 70.1596C230.36 62.158 226.997 56.3858 223.117 52.8549C219.237 49.3241 213.959 46.8176 207.295 45.3233V42.7324H255.075V45.3233C251.316 46.4199 248.424 47.8901 246.423 49.7338C244.423 51.5776 243.423 54.2287 243.423 57.6752C243.423 60.8927 244.326 65.0502 246.134 70.1476L273.079 146.175L300.024 70.1476C301.904 65.0502 302.844 60.8566 302.844 57.5547C302.844 54.2528 301.844 51.4812 299.843 49.6736C297.843 47.866 294.915 46.4199 291.071 45.3233V42.7324H328.741V45.3233C320.992 45.7451 316.666 49.3241 312.774 52.8549C308.881 56.3858 305.58 62.146 302.832 70.1596C280.237 133.787 268.512 166.938 267.644 169.601C266.463 173.361 265.138 177.229 263.643 181.194C262.149 185.159 259.161 189.401 257.112 192.775C252.4 200.306 246.399 204.259 240.338 208.32L240.35 208.308Z" fill="white"/>
<path d="M376.655 164.54H328.875V161.949C334.996 160.539 339.479 158.08 342.347 154.598C345.215 151.103 346.637 145.283 346.637 137.124V70.1591C346.637 62.0008 345.203 56.1803 342.347 52.6857C339.479 49.191 337.865 45.7566 328.742 45.3348V42.7439H358.881V73.9309C361.002 68.2069 363.653 62.8684 366.822 57.9277C369.991 52.9869 373.896 48.9861 378.535 45.9253C383.163 42.8644 388.815 41.334 395.479 41.334C399.166 41.334 402.721 41.7678 406.131 42.6234C409.542 43.4911 413.012 45.1781 416.543 47.6847L433.052 79.4983L424.617 86.7287C419.797 71.0629 413.771 59.0122 406.541 52.9869C400.793 48.2028 395.274 47.2147 388.525 47.2147C383.585 47.2147 379.246 48.8656 375.523 52.1555C371.799 55.4453 368.702 59.5063 366.232 64.3386C363.761 69.1709 361.918 74.0876 360.7 79.1127C359.483 84.1378 358.881 88.3675 358.881 91.8261V137.136C358.881 145.295 360.315 151.127 363.171 154.61C366.039 158.104 370.522 160.551 376.643 161.961V164.552L376.655 164.54Z" fill="white"/>
<path d="M459.009 163.841H456.298C449.164 143.837 440.21 126.774 429.461 99.238C418.712 71.7024 409.771 47.9265 402.625 27.9224C399.877 19.8485 396.467 14.016 392.382 10.449C388.296 6.88206 382.994 4.48398 376.33 3.06201L376.258 0.386771H424.858V2.97765C421.014 4.07425 418.037 5.56854 415.916 7.44844C413.795 9.32833 412.735 12.0397 412.735 15.5706C412.735 18.7881 413.711 22.9094 415.675 27.9224L462.986 145.127C469.108 128.184 475.856 116.615 483.231 96.9966C493.269 70.3286 501.705 47.2998 508.537 27.9224C510.261 22.825 511.128 18.6676 511.128 15.45C511.128 11.9192 510.128 9.23192 508.128 7.38818C506.127 5.54443 503.199 4.07425 499.355 2.97765V0.386771L538.339 0.27832L538.11 2.61614C531.518 4.02607 525.649 6.88206 521.54 10.449C517.419 14.016 513.984 19.8485 511.249 27.9224C503.958 48.6375 494.968 73.1484 484.304 101.467C474.265 128.147 465.83 144.452 458.997 163.829L459.009 163.841Z" fill="white"/>
<path d="M520.884 154.959C512.678 148.897 506.978 141.004 503.772 131.279C500.567 121.555 499.856 111.3 501.627 100.514C503.399 89.7289 507.616 79.8233 514.292 70.7974C520.956 61.7715 529.03 55.0352 538.514 50.5764C547.998 46.1177 557.723 44.1896 567.677 44.768C577.643 45.3465 586.717 48.6724 594.923 54.7219C603.13 60.7713 608.829 68.6765 612.035 78.4013C615.24 88.1262 615.964 98.3692 614.216 109.13C612.469 119.88 608.263 129.773 601.587 138.799C594.923 147.825 586.837 154.573 577.329 159.068C567.821 163.551 558.084 165.503 548.131 164.925C538.165 164.346 529.091 161.02 520.884 154.971V154.959ZM531.922 155.067C537.225 158.984 543.274 161.358 550.071 162.189C557.06 162.768 563.965 161.044 570.798 157.02C577.63 152.995 583.656 147.451 588.874 140.378C592.465 135.521 595.49 130.147 597.936 124.254C600.382 118.361 602.033 112.203 602.864 105.804C604.13 94.4527 602.901 84.27 599.165 75.2682C595.429 66.2663 590.151 59.2408 583.343 54.2157C578.233 50.4439 572.364 48.2025 565.761 47.5156C558.771 46.9372 551.866 48.6604 545.034 52.6853C538.201 56.7102 532.2 62.2294 527.03 69.2308C523.391 74.1474 520.354 79.5582 517.896 85.4509C515.437 91.3437 513.798 97.5016 512.967 103.9C511.677 115.144 512.846 125.254 516.474 134.22C520.089 143.185 525.246 150.139 531.935 155.079L531.922 155.067Z" fill="white"/>
<path d="M629.489 52.9738C631.176 56.348 637.78 62.8553 642.805 70.146C648.77 79.0875 654.807 88.0291 660.929 96.9827C666.894 88.0411 672.932 79.0996 679.053 70.146C683.994 62.8553 686.464 57.3602 686.464 53.6728C686.464 51.5518 685.741 49.8527 684.283 48.5512C682.825 47.2618 680.728 46.1773 677.993 45.3096V42.7188H714.241L714.651 44.912C707.589 46.4062 701.395 49.2984 696.888 52.8292C692.381 56.3601 687.453 62.1202 682.114 70.1339L662.46 99.3205L687.995 137.099C693.249 145.101 698.129 150.873 702.648 154.404C707.155 157.935 712.94 160.441 720.001 161.936V164.526H672.221V161.936C674.968 161.068 677.065 160.019 678.511 158.754C679.957 157.501 680.692 155.814 680.692 153.693C680.692 149.933 678.186 144.402 673.161 137.099C667.196 128.158 661.158 119.216 655.036 110.262C649.071 119.204 643.034 128.146 636.912 137.099C631.972 144.39 629.501 149.885 629.501 153.572C629.501 155.693 630.224 157.392 631.682 158.694C633.128 159.983 635.225 161.068 637.973 161.936V164.526H601.725L601.375 161.875C608.437 160.381 614.595 157.935 619.138 154.404C623.681 150.873 628.585 145.113 633.852 137.099L653.506 107.913L627.971 70.1339C622.717 62.1323 618.15 57.6977 615.028 52.9015" fill="white"/>
<path d="M629.491 52.9752C629.491 52.9752 596.954 10.798 570.443 2.36259C560.971 -0.650068 552.367 -0.0475322 537.906 0.277835L538.135 2.61566C538.135 2.61566 548.752 -0.0475373 565.623 4.77271C580.734 9.08683 594.544 26.4638 615.03 52.9149L629.491 52.9752Z" fill="white"/>
<path d="M376.423 0.398438L240.648 0.482801V3.15804L376.35 3.07368" fill="white"/>
<path d="M404.141 42.1301C404.141 42.1301 421.011 46.9504 431.857 67.4364L436.677 54.1807L430.652 61.4111C430.652 61.4111 423.156 43.6846 407.623 41.6963L404.141 42.1301Z" fill="black"/>
<path d="M376.656 161.949L545.136 161.431L552.366 165.046L376.656 164.54" fill="white"/>
</g>
</svg>
